# xmcd
#
# Track frame offsets: 
#        150
#        11565
#        29588
#        47798
#        66466
#        89071
#        95206
#        109306
#
# Disc length: 1667 seconds
#
# Revision: 0
# Processed by: cddbd v1.5.2PL0 Copyright (c) Steve Scherf et al.
# Submitted via: ExactAudioCopy v1.5
#
DISCID=76068108
DTITLE=The Happy Gangstas - Happy Bambole
DYEAR=1900
DGENRE=Blues
TTITLE0=Weltenbummler
TTITLE1=Urlaub in Portugal
TTITLE2=Golemwalk
TTITLE3=Badewanne
TTITLE4=Albaicin
TTITLE5=Sonntagsbeginner 1
TTITLE6=Sonntagsbeginner 2
TTITLE7=Konsole Bambole
EXTD=
EXTT0=
EXTT1=
EXTT2=
EXTT3=
EXTT4=
EXTT5=
EXTT6=
EXTT7=
PLAYORDER=
